<svg xmlns="http://www.w3.org/2000/svg" viewBox="0 0 100 100">
  <!-- Matte Dark Background Circle -->
  <circle cx="50" cy="50" r="48" fill="#0B0B0C" stroke="#FFE600" stroke-width="3"/>
  <!-- Barbell and Clenched Fist Logo centered inside circle -->
  <g transform="translate(0, 20)">
    <!-- Left barbell plates -->
    <rect x="10" y="10" width="4" height="40" rx="2" fill="#FFE600"/>
    <rect x="18" y="15" width="4" height="30" rx="1.5" fill="#FFE600"/>
    <rect x="25" y="20" width="3" height="20" rx="1" fill="#FFE600"/>
    <!-- Bar -->
    <rect x="28" y="27" width="44" height="6" fill="#FFFFFF"/>
    <!-- Right barbell plates -->
    <rect x="72" y="20" width="3" height="20" rx="1" fill="#FFE600"/>
    <rect x="78" y="15" width="4" height="30" rx="1.5" fill="#FFE600"/>
    <rect x="86" y="10" width="4" height="40" rx="2" fill="#FFE600"/>
    <!-- Center Fist silhouette integrated with bar -->
    <circle cx="50" cy="30" r="13" fill="#0B0B0C" stroke="#FFE600" stroke-width="2"/>
    <!-- Minimal fist icon -->
    <path d="M47 34 v-5 c0-0.5 0.4-1 1-1 s1 0.5 1 1 v5 M49 34 v-6 c0-0.5 0.4-1 1-1 s1 0.5 1 1 v6 M51 34 v-5.5 c0-0.5 0.4-1 1-1 s1 0.5 1 1 v5.5 M53 34 v-4.5 c0-0.5 0.4-1 1-1 s1 0.5 1 1 v4.5 M46 34 h9 v2 a2 2 0 0 1-2 2 h-5 a2 2 0 0 1-2-2 z" fill="#FFFFFF" stroke="#0B0B0C" stroke-width="1"/>
  </g>
</svg>
